<svg xmlns="http://www.w3.org/2000/svg" viewBox="0 0 1242 2208"><defs><style>.cls-1{fill:#454547}.cls-2{fill:#7c7d7f}.cls-3{fill:#afa49f}.cls-10{fill:#4d4c50}</style></defs><path class="cls-1" d="M458.38 857.05L448 937.65l69.55 156-83.94 47.65v6.32l48.4-10.41 76-38.08s2.2-50.35.12-60.53-99.75-181.55-99.75-181.55z" id="Слой_16" data-name="Слой 16"/><g id="Слой_5" data-name="Слой 5"><path class="cls-2" d="M655.7 1727.55s-14.26 268.92-9.72 272.81 58.32 1.94 62.2 0 9.72-281.88 9.72-281.88z"/><path class="cls-2" d="M504.06 1999.71c6.48-2.59 21.39-277.35 21.39-277.35l-61.56-8.42s-22.68 284.43-17.5 288.66 51.19-.3 57.67-2.89z" id="Слой_6" data-name="Слой 6"/></g><g id="Слой_7" data-name="Слой 7"><path class="cls-3" d="M449.75 2023.63l-3.6 43.58a5.88 5.88 0 0 0 5.86 6.37h182.25a5.88 5.88 0 0 0 5.88-5.88v-14.95a5.85 5.85 0 0 0-5-5.81q-45.84-6.63-92.83-14.18-43.44-7-85.7-14.44a5.85 5.85 0 0 0-6.86 5.31z"/><path class="cls-3" d="M643.77 2023.63l-3.61 43.58a5.89 5.89 0 0 0 5.87 6.37h182.24a5.89 5.89 0 0 0 5.89-5.88v-14.95a5.85 5.85 0 0 0-5-5.81q-45.85-6.63-92.84-14.18-43.42-7-85.69-14.44a5.85 5.85 0 0 0-6.86 5.31z"/><path d="M517 2028.63c-.81.35 1 7.49 3.14 8s8.19-6.2 9.84-5.86 2 5.36 4.75 5.86 5.78-4.21 7.59-3.86 3.59 6.87 8.88 7.63 9.48-3.82 9.48-4.71-4.51-1.73-9.58-3.63-16.29-3.7-21.47-4.23a43 43 0 0 0-12.63.8zm204.13 1.9c-.81.36 1 7.49 3.14 8s8.19-6.21 9.84-5.87 2 5.36 4.75 5.87 5.78-4.22 7.59-3.87 3.59 6.87 8.88 7.63 9.48-3.82 9.48-4.7-4.51-1.73-9.58-3.64-16.29-3.7-21.47-4.23a43.32 43.32 0 0 0-12.63.81z" fill="#633f27" id="Слой_3" data-name="Слой 3"/></g><g id="Слой_11" data-name="Слой 11"><path d="M581.28 293.06c-5.71 3-10.72 79.16-9 82.86s75.3 22.7 75.3 22.7-2.63-22.67 0-40a143.15 143.15 0 0 1 8-30.22s-68.58-38.34-74.3-35.34z" fill="#e5c8b5" id="Слой_14" data-name="Слой 14"/><path d="M651.19 335.7c8.8.74 36.51-1.23 43.94-7.55s3.19-56.71 4-71 10-26 13.31-38.17-3-24.38-6.65-42.62-.89-53.7-.89-53.7l-133.6 6.21s-18.4 147.54-16.43 154 87.52 52.13 96.32 52.83z" fill="#fce7d4"/><path d="M549.54 309.48c1.1 3 16.3-14.1 21.28-24.33s2.49-137.35 5.25-138.15 31.23 34.55 34 32.33 2.09-46.7 5.26-48.36 29.57 9.95 43.11 11.33 29.85 1.94 40.63-2.76 20-19.35 20-25.43-17.22-17.77-17.22-17.77L526.32 116S520 130.66 520 137.57s14.37 58.87 18.51 76 9.92 92.87 11.03 95.91z" fill="#d9c4b6" id="Слой_9" data-name="Слой 9"/><path d="M667.92 166.9c-4.13 0-1.78 62.37-1.78 64.52 1.68 4.82 47.05 4.46 47.05-.37s-41.14-64.15-45.27-64.15z" fill="#f6d2be" id="Слой_12" data-name="Слой 12"/><path d="M635.35 262.68c0 2.29 6.3 8.66 10.5 10.23s41.61 2.3 43.48 1.35 2.93-6.81 1.46-8.61-40.52-1.09-44.14-3-5.71-7-8.07-7-3.23 4.75-3.23 7.03z" fill="#f5d9c4" id="Слой_13" data-name="Слой 13"/></g><g id="Слой_4" data-name="Слой 4"><path class="cls-10" d="M508.89 49.47v42.62c0 3 4.47 1.72 6.56 4.59s0 15.74 0 15.74h14.42c6.06 0 32.59-23.39 62.3-38s53.09-16.54 66.88-15.74S702.31 81.94 710.2 81s106.65-50.21 104.91-53.82S630-3.07 611.18.29 508.89 49.47 508.89 49.47zm-93.11 45.24l80 9.84V92.09l3.93-3.94V52.74l-83.93 41.97z"/><path class="cls-1" d="M642.1 56.52c-37.69 3-117.77 46.3-119.07 53.27s-6.71 22-4.65 25.07 140.66.72 155.15 0 17.67-.07 27.31-5.23 16.71-14.59 18-19.84-4.81-26.49-8.66-31.47-30.39-24.8-68.08-21.8z"/><g id="Слой_8" data-name="Слой 8"><path d="M509.89 198.48c1.1-.5-.95-84.95 0-85.5s4.65 1.88 5.93.66-.32-17.33-.32-17.33l-22.43.27s-.05 7.48.87 8.16 2.72 1.58 3.14 2.56.18 19 .18 19-1.4 70.56-.55 71.41 12.09 1.29 13.18.77z" fill="#bbae86" id="Слой_15" data-name="Слой 15"/><path d="M498.28 53c-.06 2.33 9.81-9.8 11.78-9s-1.29 46.18 0 47.69 7.31 2.59 5.39 5-21.66 1.23-22.38-.1 1.88-6.72 2.46-7.34 1.15 1.22 1.92-1.1.88-37.46.83-35.15z" fill="#8c827a"/></g></g><path class="cls-10" d="M337.7 754.68c0-38.43 91-311.6 97.52-323 8.44-10.27 101.71-60.17 123.66-63.45s83.74 11.34 91.12 14.64 50.19 34.08 63.45 48.81 46 276.67 53.7 296.14S926 978.53 923.35 1007.7s-85.77 76.71-97.62 70-97.88-307.47-112.28-307.56c-6.86 0 8.44 349.55 17.82 446.32 10.49 172 43.17 500.06 32.63 513.68s-360 28.94-374.24 17.9 34-591.59 43.93-600.41 50.64-15.58 57.05-14.71 15.82 49.17 19.89 51.74 3.51-.58 13.31-1.2c3-.19 7.1-1.79 14.5-4.64s32.85-14.88 34.85-18.54-10.24-33.17-19-51.44c-4.33-3.06-6.55-4.38-4.49-15.4 1.71-9.12 13.19-25 5.9-55.72S459 902.36 455.82 870c-1-9.94 9.17-220.07 3.8-225.13s-46.53 84.54-50.44 109.83 122.06 320.73 120.41 331.12-35.84 27.75-48.81 35.79-77.89 37.19-86.24 29.29c-10.8-10.22-56.84-357.79-56.84-396.22z" id="Слой_2" data-name="Слой 2"/><path d="M489.72 1133.85c1.44 3 17.95 56.73 23.11 60.92s13.45-.76 14.7-3.15-.62-5.07 0-5.61 9.34 4.64 11.91 4.47 9.23-1.84 10.2-3.71-.65-8.25 0-8.81 9.73 4.62 11.86 4.48 8.32-1.59 9.13-3.47-2.94-11.15-1.79-11.86 17.52 8.51 19.26 3.46-2.27-13.94-3.58-18.14-11.38-30.45-22.68-39.58-31.56-23.56-33.8-23.56-13.18 10.4-19.4 14.81-27.86 17.49-27.86 17.49 7.51 9.27 8.94 12.26zm396.51-56.68c2.55 5 11.58 24.33 15.76 27.43s10-1.54 10.81-3.6 0-5.23.38-5.72 6.56 4.29 8.48 4 6.79-2.14 7.37-3.74-2-6.14-.65-7.26 7.65 3.14 9.24 2.88 6.12-1.87 6.6-3.48-2.77-6.74-2-7.4c1.31-1.54 4.43 1.08 8.53 1.87 2.46.48 3.91-3.22 4.26-4.83.92-4.28-1.09-9.07-2.38-12.45s-8.58-13.53-17.74-20.28-21.53-18.26-23.21-18.11-9.61 8.42-14 12.47-20.33 14-19.12 16.8c1.12 1.96 5.12 16.43 7.67 21.42z" fill="#fae6d8" id="Слой_17" data-name="Слой 17"/></svg>