<svg xmlns="http://www.w3.org/2000/svg" viewBox="400 0 542 2208"><defs><style>.cls-1{fill:#454547;}.cls-2{fill:#7c7d7f;}.cls-3{fill:#afa49f;}.cls-4{fill:#633f27;}.cls-5{fill:#e5c8b5;}.cls-6{fill:#fce7d4;}.cls-7{fill:#d9c4b6;}.cls-8{fill:#f6d2be;}.cls-9{fill:#f5d9c4;}.cls-10{fill:#4d4c50;}.cls-11{fill:#bbae86;}.cls-12{fill:#8c827a;}.cls-13{fill:#fae6d8;}</style></defs><title>Монтажная область 1</title><g id="Слой_16" data-name="Слой 16"><path class="cls-1" d="M458.38,857.05,448,937.65l69.55,156-83.94,47.65v6.32l48.4-10.41,76-38.08s2.2-50.35.12-60.53S458.38,857.05,458.38,857.05Z"/></g><g id="Слой_5" data-name="Слой 5"><path class="cls-2" d="M655.7,1727.55s-14.26,268.92-9.72,272.81,58.32,1.94,62.2,0,9.72-281.88,9.72-281.88Z"/><g id="Слой_6" data-name="Слой 6"><path class="cls-2" d="M504.06,1999.71c6.48-2.59,21.39-277.35,21.39-277.35l-61.56-8.42s-22.68,284.43-17.5,288.66S497.58,2002.3,504.06,1999.71Z"/></g></g><g id="Слой_7" data-name="Слой 7"><path class="cls-3" d="M449.75,2023.63l-3.6,43.58a5.88,5.88,0,0,0,5.86,6.37H634.26a5.88,5.88,0,0,0,5.88-5.88v-14.95a5.85,5.85,0,0,0-5-5.81q-45.84-6.63-92.83-14.18-43.44-7-85.7-14.44A5.85,5.85,0,0,0,449.75,2023.63Z"/><path class="cls-3" d="M643.77,2023.63l-3.61,43.58a5.89,5.89,0,0,0,5.87,6.37H828.27a5.89,5.89,0,0,0,5.89-5.88v-14.95a5.85,5.85,0,0,0-5-5.81q-45.85-6.63-92.84-14.18-43.42-7-85.69-14.44A5.85,5.85,0,0,0,643.77,2023.63Z"/><g id="Слой_3" data-name="Слой 3"><path class="cls-4" d="M517,2028.63c-.81.35,1,7.49,3.14,8s8.19-6.2,9.84-5.86,2,5.36,4.75,5.86,5.78-4.21,7.59-3.86,3.59,6.87,8.88,7.63,9.48-3.82,9.48-4.71-4.51-1.73-9.58-3.63-16.29-3.7-21.47-4.23A43,43,0,0,0,517,2028.63Z"/><path class="cls-4" d="M721.13,2030.53c-.81.36,1,7.49,3.14,8s8.19-6.21,9.84-5.87,2,5.36,4.75,5.87,5.78-4.22,7.59-3.87,3.59,6.87,8.88,7.63,9.48-3.82,9.48-4.7-4.51-1.73-9.58-3.64-16.29-3.7-21.47-4.23A43.32,43.32,0,0,0,721.13,2030.53Z"/></g></g><g id="Слой_11" data-name="Слой 11"><g id="Слой_14" data-name="Слой 14"><path class="cls-5" d="M581.28,293.06c-5.71,3-10.72,79.16-9,82.86s75.3,22.7,75.3,22.7-2.63-22.67,0-40a143.15,143.15,0,0,1,8-30.22S587,290.06,581.28,293.06Z"/></g><path class="cls-6" d="M651.19,335.7c8.8.74,36.51-1.23,43.94-7.55s3.19-56.71,4-71,10-26,13.31-38.17-3-24.38-6.65-42.62-.89-53.7-.89-53.7l-133.6,6.21s-18.4,147.54-16.43,154S642.39,335,651.19,335.7Z"/><g id="Слой_9" data-name="Слой 9"><path class="cls-7" d="M549.54,309.48c1.1,3,16.3-14.1,21.28-24.33S573.31,147.8,576.07,147s31.23,34.55,34,32.33,2.09-46.7,5.26-48.36,29.57,9.95,43.11,11.33,29.85,1.94,40.63-2.76,20-19.35,20-25.43-17.22-17.77-17.22-17.77L526.32,116S520,130.66,520,137.57s14.37,58.87,18.51,76S548.43,306.44,549.54,309.48Z"/></g><g id="Слой_12" data-name="Слой 12"><path class="cls-8" d="M667.92,166.9c-4.13,0-1.78,62.37-1.78,64.52,1.68,4.82,47.05,4.46,47.05-.37S672.05,166.9,667.92,166.9Z"/></g><g id="Слой_13" data-name="Слой 13"><path class="cls-9" d="M635.35,262.68c0,2.29,6.3,8.66,10.5,10.23s41.61,2.3,43.48,1.35,2.93-6.81,1.46-8.61-40.52-1.09-44.14-3-5.71-7-8.07-7S635.35,260.4,635.35,262.68Z"/></g></g><g id="Слой_4" data-name="Слой 4"><path class="cls-10" d="M508.89,49.47V92.09c0,3,4.47,1.72,6.56,4.59s0,15.74,0,15.74h14.42c6.06,0,32.59-23.39,62.3-38s53.09-16.54,66.88-15.74S702.31,81.94,710.2,81,816.85,30.79,815.11,27.18,630-3.07,611.18.29,508.89,49.47,508.89,49.47Z"/><polygon class="cls-10" points="415.78 94.71 495.78 104.55 495.78 92.09 499.71 88.15 499.71 52.74 415.78 94.71"/><path class="cls-1" d="M642.1,56.52c-37.69,3-117.77,46.3-119.07,53.27s-6.71,22-4.65,25.07,140.66.72,155.15,0,17.67-.07,27.31-5.23,16.71-14.59,18-19.84-4.81-26.49-8.66-31.47S679.79,53.52,642.1,56.52Z"/><g id="Слой_8" data-name="Слой 8"><g id="Слой_15" data-name="Слой 15"><path class="cls-11" d="M509.89,198.48c1.1-.5-.95-84.95,0-85.5s4.65,1.88,5.93.66-.32-17.33-.32-17.33l-22.43.27s-.05,7.48.87,8.16,2.72,1.58,3.14,2.56.18,19,.18,19-1.4,70.56-.55,71.41S508.8,199,509.89,198.48Z"/></g><path class="cls-12" d="M498.28,53c-.06,2.33,9.81-9.8,11.78-9s-1.29,46.18,0,47.69,7.31,2.59,5.39,5-21.66,1.23-22.38-.1,1.88-6.72,2.46-7.34,1.15,1.22,1.92-1.1S498.33,50.69,498.28,53Z"/></g></g><g id="Слой_2" data-name="Слой 2"><path class="cls-10" d="M337.7,754.68c0-38.43,91-311.6,97.52-323,8.44-10.27,101.71-60.17,123.66-63.45s83.74,11.34,91.12,14.64,50.19,34.08,63.45,48.81,46,276.67,53.7,296.14S926,978.53,923.35,1007.7s-85.77,76.71-97.62,70S727.85,770.23,713.45,770.14c-6.86,0,8.44,349.55,17.82,446.32,10.49,172,43.17,500.06,32.63,513.68s-360,28.94-374.24,17.9,34-591.59,43.93-600.41,50.64-15.58,57.05-14.71,15.82,49.17,19.89,51.74,3.51-.58,13.31-1.2c3-.19,7.1-1.79,14.5-4.64s32.85-14.88,34.85-18.54-10.24-33.17-19-51.44c-4.33-3.06-6.55-4.38-4.49-15.4,1.71-9.12,13.19-25,5.9-55.72S459,902.36,455.82,870c-1-9.94,9.17-220.07,3.8-225.13s-46.53,84.54-50.44,109.83,122.06,320.73,120.41,331.12-35.84,27.75-48.81,35.79-77.89,37.19-86.24,29.29C383.74,1140.68,337.7,793.11,337.7,754.68Z"/></g><g id="Слой_17" data-name="Слой 17"><path class="cls-13" d="M489.72,1133.85c1.44,3,17.95,56.73,23.11,60.92s13.45-.76,14.7-3.15-.62-5.07,0-5.61,9.34,4.64,11.91,4.47,9.23-1.84,10.2-3.71-.65-8.25,0-8.81,9.73,4.62,11.86,4.48,8.32-1.59,9.13-3.47-2.94-11.15-1.79-11.86,17.52,8.51,19.26,3.46-2.27-13.94-3.58-18.14-11.38-30.45-22.68-39.58-31.56-23.56-33.8-23.56-13.18,10.4-19.4,14.81-27.86,17.49-27.86,17.49S488.29,1130.86,489.72,1133.85Z"/><path class="cls-13" d="M886.23,1077.17c2.55,5,11.58,24.33,15.76,27.43s10-1.54,10.81-3.6,0-5.23.38-5.72,6.56,4.29,8.48,4,6.79-2.14,7.37-3.74-2-6.14-.65-7.26,7.65,3.14,9.24,2.88,6.12-1.87,6.6-3.48-2.77-6.74-2-7.4c1.31-1.54,4.43,1.08,8.53,1.87,2.46.48,3.91-3.22,4.26-4.83.92-4.28-1.09-9.07-2.38-12.45s-8.58-13.53-17.74-20.28-21.53-18.26-23.21-18.11-9.61,8.42-14,12.47-20.33,14-19.12,16.8C879.68,1057.71,883.68,1072.18,886.23,1077.17Z"/></g></svg>
